<?xml version="1.0" encoding="utf-8"?>
<!-- Generator: Adobe Illustrator 25.3.1, SVG Export Plug-In . SVG Version: 6.00 Build 0)  -->
<svg version="1.1" id="Layer_1" xmlns="http://www.w3.org/2000/svg" xmlns:xlink="http://www.w3.org/1999/xlink" x="0px" y="0px"
	 viewBox="0 0 32 32" style="enable-background:new 0 0 32 32;" xml:space="preserve">
<g>
	<path d="M20.7,6.2c0,2.1-1.1,3.9-3,5.1c-1.6,1.1-3.3,2.2-4.9,3.4c-2.6,2-4.2,4.6-4.3,7.9c-0.1,3.6,1.6,6.4,4.6,8.4
		c0.1,0,0.1,0.1,0.2,0.1c0.3,0.2,0.5,0.4,0.3,0.7c-0.1,0.1-0.2,0.1-0.3,0.1c-0.1,0-0.2,0-0.3,0c-1.6-0.4-3.2-1-4.6-1.9
		c-4.7-2.9-7.4-7-8-12.4C0,14,0.8,10.2,2.9,7.1c2-3.1,5.1-5.5,8.7-6.6c1.8-0.6,3.7-0.7,5.5,0.1c1.1,0.5,2.1,1.3,2.8,2.3
		C20.4,3.8,20.8,5,20.7,6.2L20.7,6.2z"/>
	<path d="M31.7,18.6c0,1.4-0.4,3-1.9,4.1c-1.8,1.3-4,1.2-5.4-0.2c-0.4-0.4-0.7-0.9-0.9-1.4c-0.2-0.5-0.2-1.1-0.2-1.7
		c0.1-0.6,0.3-1.1,0.6-1.6c0.3-0.5,0.7-0.9,1.2-1.2c0.2-0.1,0.4-0.2,0.6-0.3c1.6-0.9,2.3-2.3,2.3-4l0,0c0-0.3,0.3-0.5,0.6-0.3
		c0,0,0,0,0,0C30.6,13.6,31.7,15.8,31.7,18.6z"/>
</g>
</svg>
